<?xml version="1.0" encoding="utf-8"?>
<!-- Generator: Adobe Illustrator 27.8.1, SVG Export Plug-In . SVG Version: 6.00 Build 0)  -->
<svg version="1.1" id="Layer_1" xmlns="http://www.w3.org/2000/svg" xmlns:xlink="http://www.w3.org/1999/xlink" x="0px" y="0px"
	 viewBox="0 0 1920 1080" style="enable-background:new 0 0 1920 1080;" xml:space="preserve">
<style type="text/css">
	.st0{fill:#FFFFFF;}
	.st1{fill:#A0CF77;}
</style>
<g>
	<g>
		<rect x="759.8" y="514.4" class="st0" width="34.8" height="34.8"/>
		<g>
			<g>
				<path class="st0" d="M733.7,375.1h34.8v104.4H664.1V340.3h69.6V375.1z M733.7,410h-34.8v34.8h34.8V410z"/>
				<path class="st0" d="M890.4,444.8v34.8H786V340.3h34.8v104.4L890.4,444.8L890.4,444.8z"/>
				<path class="st0" d="M942.6,375.1v69.6h-34.8V340.3h69.6v34.8L942.6,375.1L942.6,375.1z M1012.2,375.1v104.4h-69.6v-34.8h34.8
					v-69.6H1012.2z"/>
				<path class="st0" d="M1134.1,340.3v34.8h-69.6v69.6h69.6v34.8h-104.4V340.3H1134.1z"/>
				<path class="st0" d="M1221.1,375.1V410h-34.8v69.6h-34.8V340.3h34.8v34.8L1221.1,375.1L1221.1,375.1z M1255.9,375.1h-34.8v-34.8
					h34.8V375.1z M1221.1,479.6V410h34.8v69.6H1221.1z"/>
				<path class="st0" d="M585.8,549.2h34.8v104.4H516.2V514.4h69.6V549.2z M585.8,584H551v34.8h34.8V584z"/>
				<path class="st0" d="M672.8,514.4v104.4H638V514.4H672.8z M742.4,514.4v139.2h-69.6v-34.8h34.8V514.4H742.4z"/>
				<path class="st0" d="M759.8,584h34.8v69.6h-34.8V584z"/>
				<path class="st0" d="M916.5,618.8v34.8H812.1V514.4h34.8v104.4H916.5z"/>
				<path class="st0" d="M1003.5,549.2h34.8v104.4H933.9V514.4h69.6V549.2h-34.8v69.6h34.8V549.2z"/>
				<path class="st0" d="M1125.3,549.2h34.8V584h-69.6v34.8h69.6v34.8h-104.4V514.4h69.6V549.2z"/>
				<path class="st0" d="M1247.2,584v34.8h-34.8v34.8h-34.8V514.4h69.6v34.8h-34.8V584H1247.2z M1247.2,584v-34.8h34.8V584H1247.2z
					 M1247.2,653.6v-34.8h34.8v34.8H1247.2z"/>
				<path class="st0" d="M1369,549.2h34.8v104.4h-104.4v-34.8h69.6V584h-69.6v-69.6h69.6V549.2z"/>
			</g>
		</g>
	</g>
	<g>
		<path class="st1" d="M610.8,738.7v-41.5h-14.6v-8.6h38.6v8.6h-14.6v41.5H610.8z"/>
		<path class="st1" d="M642.7,738.7v-50.1h9.4v20.7h18.6v-20.7h9.4v50.1h-9.4v-20.8h-18.6v20.8H642.7z"/>
		<path class="st1" d="M691.1,738.7v-50.1h32.2v8.6h-22.7v11.9h20.7v8.6h-20.7v12.4h23.2v8.6L691.1,738.7L691.1,738.7z"/>
		<path class="st1" d="M769,739.7c-3.4,0-6.5-0.8-9.3-2.3c-2.8-1.5-5-3.8-6.7-6.8s-2.5-6.6-2.5-10.9v-12c0-6.4,1.8-11.4,5.4-14.8
			s8.5-5.2,14.7-5.2c6.2,0,10.9,1.6,14.3,4.9c3.4,3.3,5,7.7,5,13.3v0.3h-9.3v-0.6c0-1.8-0.4-3.4-1.1-4.8s-1.8-2.6-3.3-3.4
			c-1.5-0.8-3.3-1.2-5.6-1.2c-3.3,0-6,1-7.9,3.1c-1.9,2-2.9,4.8-2.9,8.4v12.3c0,3.5,1,6.3,2.9,8.4s4.6,3.2,8,3.2s5.9-0.9,7.5-2.7
			s2.4-4.1,2.4-6.9v-0.7h-11.9v-8H790v25.6h-8.7v-4.8H780c-0.3,0.8-0.9,1.7-1.6,2.6c-0.7,0.9-1.8,1.7-3.3,2.3
			C773.6,739.4,771.6,739.7,769,739.7z"/>
		<path class="st1" d="M800.5,738.7v-50.1h32.2v8.6h-22.7v11.9h20.7v8.6h-20.7v12.4h23.2v8.6L800.5,738.7L800.5,738.7z"/>
		<path class="st1" d="M841.5,738.7v-50.1h18l9.9,43.6h1.3v-43.6h9.3v50.1h-18l-9.9-43.6h-1.3v43.6H841.5z"/>
		<path class="st1" d="M890.8,738.7v-50.1H923v8.6h-22.7v11.9H921v8.6h-20.7v12.4h23.2v8.6L890.8,738.7L890.8,738.7z"/>
		<path class="st1" d="M949.3,739.7c-3.9,0-7.3-0.7-10.2-2.1c-3-1.4-5.3-3.4-6.9-5.9c-1.7-2.6-2.5-5.7-2.5-9.3v-2h9.3v2
			c0,3,0.9,5.3,2.8,6.8s4.4,2.2,7.6,2.2c3.2,0,5.7-0.6,7.3-1.9c1.6-1.3,2.4-2.9,2.4-4.9c0-1.4-0.4-2.5-1.2-3.4s-1.9-1.6-3.4-2.1
			s-3.3-1.1-5.5-1.5l-1.7-0.4c-3.4-0.8-6.4-1.7-8.8-2.9c-2.5-1.2-4.3-2.7-5.7-4.6c-1.3-1.9-2-4.4-2-7.4s0.7-5.7,2.2-7.8
			c1.5-2.2,3.5-3.8,6.2-5s5.8-1.8,9.3-1.8c3.6,0,6.8,0.6,9.5,1.8c2.8,1.2,5,3,6.6,5.4c1.6,2.4,2.4,5.4,2.4,9v2.2h-9.3v-2.2
			c0-1.9-0.4-3.4-1.1-4.6s-1.8-2-3.2-2.6c-1.4-0.5-3-0.8-4.9-0.8c-2.9,0-5,0.5-6.3,1.6c-1.4,1.1-2,2.5-2,4.4c0,1.2,0.3,2.3,1,3.2
			c0.6,0.9,1.6,1.6,2.9,2.2c1.3,0.6,2.9,1.1,4.9,1.5l1.6,0.4c3.6,0.8,6.7,1.7,9.3,2.9c2.7,1.2,4.7,2.8,6.2,4.7
			c1.5,2,2.2,4.5,2.2,7.5s-0.8,5.7-2.3,8c-1.5,2.3-3.7,4.1-6.6,5.4C956.5,739,953.1,739.7,949.3,739.7z"/>
		<path class="st1" d="M976.7,738.7v-50.1h9.4v50.1H976.7z"/>
		<path class="st1" d="M1014.3,739.7c-3.9,0-7.3-0.7-10.2-2.1c-3-1.4-5.3-3.4-6.9-5.9c-1.7-2.6-2.5-5.7-2.5-9.3v-2h9.3v2
			c0,3,0.9,5.3,2.8,6.8s4.4,2.2,7.6,2.2c3.2,0,5.7-0.6,7.3-1.9c1.6-1.3,2.4-2.9,2.4-4.9c0-1.4-0.4-2.5-1.2-3.4s-1.9-1.6-3.4-2.1
			s-3.3-1.1-5.5-1.5l-1.7-0.4c-3.4-0.8-6.4-1.7-8.8-2.9c-2.5-1.2-4.3-2.7-5.7-4.6c-1.3-1.9-2-4.4-2-7.4s0.7-5.7,2.2-7.8
			c1.5-2.2,3.5-3.8,6.2-5s5.8-1.8,9.3-1.8c3.6,0,6.8,0.6,9.5,1.8c2.8,1.2,5,3,6.6,5.4c1.6,2.4,2.4,5.4,2.4,9v2.2h-9.3v-2.2
			c0-1.9-0.4-3.4-1.1-4.6s-1.8-2-3.2-2.6c-1.4-0.5-3-0.8-4.9-0.8c-2.9,0-5,0.5-6.3,1.6c-1.4,1.1-2,2.5-2,4.4c0,1.2,0.3,2.3,1,3.2
			c0.6,0.9,1.6,1.6,2.9,2.2c1.3,0.6,2.9,1.1,4.9,1.5l1.6,0.4c3.6,0.8,6.7,1.7,9.3,2.9c2.7,1.2,4.7,2.8,6.2,4.7
			c1.5,2,2.2,4.5,2.2,7.5s-0.8,5.7-2.3,8c-1.6,2.3-3.7,4.1-6.6,5.4C1021.6,739,1018.2,739.7,1014.3,739.7z"/>
		<path class="st1" d="M1061.3,738.7v-50.1h32.2v8.6h-22.7v11.9h20.7v8.6h-20.7v12.4h23.2v8.6L1061.3,738.7L1061.3,738.7z"/>
		<path class="st1" d="M1100.9,738.7v-8.3h6.6v-33.5h-6.6v-8.3h20.6c6.7,0,11.8,1.7,15.3,5.1c3.5,3.4,5.3,8.5,5.3,15.2v9.4
			c0,6.7-1.8,11.8-5.3,15.2c-3.5,3.4-8.6,5.1-15.3,5.1L1100.9,738.7L1100.9,738.7z M1117,730.1h4.7c3.8,0,6.6-1,8.4-3
			c1.8-2,2.7-4.8,2.7-8.4v-10c0-3.7-0.9-6.5-2.7-8.5s-4.6-3-8.4-3h-4.7V730.1z"/>
		<path class="st1" d="M1151.4,738.7v-50.1h9.4v50.1H1151.4z"/>
		<path class="st1" d="M1183.3,738.7v-41.5h-14.6v-8.6h38.6v8.6h-14.6v41.5H1183.3z"/>
		<path class="st1" d="M1215.2,738.7v-50.1h9.4v50.1H1215.2z"/>
		<path class="st1" d="M1255,739.7c-6.3,0-11.3-1.7-15-5.2c-3.7-3.5-5.6-8.4-5.6-14.8v-12c0-6.4,1.9-11.4,5.6-14.8s8.7-5.2,15-5.2
			c6.3,0,11.3,1.7,15,5.2c3.7,3.5,5.6,8.4,5.6,14.8v12c0,6.4-1.9,11.4-5.6,14.8C1266.3,737.9,1261.3,739.7,1255,739.7z M1255,731.2
			c3.5,0,6.3-1,8.2-3.1s2.9-4.8,2.9-8.2v-12.6c0-3.4-1-6.2-2.9-8.2c-2-2-4.7-3.1-8.2-3.1c-3.5,0-6.2,1-8.2,3.1c-2,2-3,4.8-3,8.2
			v12.6c0,3.4,1,6.2,3,8.2C1248.8,730.2,1251.5,731.2,1255,731.2z"/>
		<path class="st1" d="M1285.3,738.7v-50.1h17.9l9.9,43.6h1.3v-43.6h9.3v50.1h-17.9l-9.9-43.6h-1.3v43.6H1285.3z"/>
	</g>
</g>
<rect x="1125.3" y="618.8" class="st1" width="34.8" height="34.8"/>
</svg>
